<?xml version="1.0" encoding="UTF-8"?>
<?xml-stylesheet href="https://assets.antv.antgroup.com/AlibabaPuHuiTi-Regular/result.css" type="text/css"?>
<?xml-stylesheet href="https://assets.antv.antgroup.com/AlibabaPuHuiTi-Bold/result.css" type="text/css"?>
<svg style="" height="410" width="734" font-family="Alibaba PuHuiTi" xmlns="http://www.w3.org/2000/svg" viewBox="-20 -20 734 410"><defs /><g id="infographic-container"><g transform="translate(0, 30)"><g transform="translate(347, 170)"><path d="M0,-137.986A2,2,0,0,1,2.029,-139.985A140,140,0,0,1,133.761,41.328A2,2,0,0,1,131.232,42.64L0,0Z" fill="#2337ff" stroke="#ffffff" stroke-width="1" width="280" height="280" /><path d="M131.232,42.64A2,2,0,0,1,132.507,45.188A140,140,0,0,1,-41.328,133.761A2,2,0,0,1,-42.64,131.232L0,0Z" fill="#ff5d8f" stroke="#ffffff" stroke-width="1" width="280" height="280" /><path d="M-42.64,131.232A2,2,0,0,1,-45.188,132.507A140,140,0,0,1,-139.985,2.029A2,2,0,0,1,-137.986,0L0,0Z" fill="#66ccff" stroke="#ffffff" stroke-width="1" width="280" height="280" /><path d="M-137.986,0A2,2,0,0,1,-139.985,-2.029A140,140,0,0,1,-83.923,-112.058A2,2,0,0,1,-81.106,-111.633L0,0Z" fill="#ffd1e4" stroke="#ffffff" stroke-width="1" width="280" height="280" /><path d="M-81.106,-111.633A2,2,0,0,1,-80.64,-114.443A140,140,0,0,1,-2.029,-139.985A2,2,0,0,1,0,-137.986L0,0Z" fill="#b8860b" stroke="#ffffff" stroke-width="1" width="280" height="280" /></g><g><path d="M460.26237921249265 87.71006467905377 
        L477.25173609436655 75.36657438091184 
        L536 75.36657438091184
        L584 75.36657438091184
        " stroke="#2337ff" stroke-opacity="0.45" stroke-width="2" fill="none" /><path d="M410.5586699635365 294.7409133863715 
        L420.09247045806694 313.4520503943272 
        L536 313.4520503943272
        L584 313.4520503943272
        " stroke="#ff5d8f" stroke-opacity="0.45" stroke-width="2" fill="none" /><path d="M233.73762078750735 252.28993532094626 
        L216.74826390563348 264.6334256190882 
        L158 264.6334256190882
        L110 264.6334256190882
        " stroke="#66ccff" stroke-opacity="0.45" stroke-width="2" fill="none" /><path d="M222.25908661362848 106.44133003646346 
        L203.54794960567276 96.90752954193299 
        L158 96.90752954193299
        L110 96.90752954193299
        " stroke="#ffd1e4" stroke-opacity="0.45" stroke-width="2" fill="none" /><path d="M303.73762078750735 36.85208771867852 
        L297.24826390563345 16.879900876480292 
        L158 16.879900876480292
        L110 16.879900876480292
        " stroke="#b8860b" stroke-opacity="0.45" stroke-width="2" fill="none" /></g><g><g transform="translate(378.6311896062463, 118.85503233952687)"><foreignObject height="20" width="50" y="0" x="0" overflow="visible"><span style="overflow:visible;color:#ffffff;font-weight:bold;font-size:12px;width:100%;height:100%;display:flex;flex-wrap:wrap;word-break:break-word;white-space:pre-wrap;text-align:center;justify-content:center;align-content:center;align-items:center" xmlns="http://www.w3.org/1999/xhtml">30.0%</span></foreignObject></g><g transform="translate(353.7793349817683, 222.37045669318576)"><foreignObject height="20" width="50" y="0" x="0" overflow="visible"><span style="overflow:visible;color:#ffffff;font-weight:bold;font-size:12px;width:100%;height:100%;display:flex;flex-wrap:wrap;word-break:break-word;white-space:pre-wrap;text-align:center;justify-content:center;align-content:center;align-items:center" xmlns="http://www.w3.org/1999/xhtml">25.0%</span></foreignObject></g><g transform="translate(265.3688103937537, 201.14496766047313)"><foreignObject height="20" width="50" y="0" x="0" overflow="visible"><span style="overflow:visible;color:#ffffff;font-weight:bold;font-size:12px;width:100%;height:100%;display:flex;flex-wrap:wrap;word-break:break-word;white-space:pre-wrap;text-align:center;justify-content:center;align-content:center;align-items:center" xmlns="http://www.w3.org/1999/xhtml">20.0%</span></foreignObject></g><g transform="translate(259.62954330681424, 128.22066501823173)"><foreignObject height="20" width="50" y="0" x="0" overflow="visible"><span style="overflow:visible;color:#ffffff;font-weight:bold;font-size:12px;width:100%;height:100%;display:flex;flex-wrap:wrap;word-break:break-word;white-space:pre-wrap;text-align:center;justify-content:center;align-content:center;align-items:center" xmlns="http://www.w3.org/1999/xhtml">15.0%</span></foreignObject></g><g transform="translate(300.3688103937537, 93.42604385933926)"><foreignObject height="20" width="50" y="0" x="0" overflow="visible"><span style="overflow:visible;color:#ffffff;font-weight:bold;font-size:12px;width:100%;height:100%;display:flex;flex-wrap:wrap;word-break:break-word;white-space:pre-wrap;text-align:center;justify-content:center;align-content:center;align-items:center" xmlns="http://www.w3.org/1999/xhtml">10.0%</span></foreignObject></g></g><g><g transform="translate(592, 65.36657438091184)"><foreignObject height="20" width="120" y="0" x="0" overflow="visible"><span style="overflow:visible;color:#262626;font-weight:regular;font-size:14px;line-height:1.4;width:100%;height:100%;display:flex;flex-wrap:wrap;word-break:break-word;white-space:pre-wrap;text-align:left;justify-content:flex-start;align-content:flex-start;align-items:flex-start" xmlns="http://www.w3.org/1999/xhtml">Astro</span></foreignObject></g><g transform="translate(592, 303.4520503943272)"><foreignObject height="20" width="120" y="0" x="0" overflow="visible"><span style="overflow:visible;color:#262626;font-weight:regular;font-size:14px;line-height:1.4;width:100%;height:100%;display:flex;flex-wrap:wrap;word-break:break-word;white-space:pre-wrap;text-align:left;justify-content:flex-start;align-content:flex-start;align-items:flex-start" xmlns="http://www.w3.org/1999/xhtml">Vue</span></foreignObject></g><g transform="translate(-18, 254.6334256190882)"><foreignObject height="20" width="120" y="0" x="0" overflow="visible"><span style="overflow:visible;color:#262626;font-weight:regular;font-size:14px;line-height:1.4;width:100%;height:100%;display:flex;flex-wrap:wrap;word-break:break-word;white-space:pre-wrap;text-align:right;justify-content:flex-end;align-content:flex-start;align-items:flex-start" xmlns="http://www.w3.org/1999/xhtml">React</span></foreignObject></g><g transform="translate(-18, 86.90752954193299)"><foreignObject height="20" width="120" y="0" x="0" overflow="visible"><span style="overflow:visible;color:#262626;font-weight:regular;font-size:14px;line-height:1.4;width:100%;height:100%;display:flex;flex-wrap:wrap;word-break:break-word;white-space:pre-wrap;text-align:right;justify-content:flex-end;align-content:flex-start;align-items:flex-start" xmlns="http://www.w3.org/1999/xhtml">Svelte</span></foreignObject></g><g transform="translate(-18, 6.879900876480292)"><foreignObject height="20" width="120" y="0" x="0" overflow="visible"><span style="overflow:visible;color:#262626;font-weight:regular;font-size:14px;line-height:1.4;width:100%;height:100%;display:flex;flex-wrap:wrap;word-break:break-word;white-space:pre-wrap;text-align:right;justify-content:flex-end;align-content:flex-start;align-items:flex-start" xmlns="http://www.w3.org/1999/xhtml">Solid</span></foreignObject></g></g></g></g></svg>